<svg width="16" height="16" viewBox="0 0 16 16" fill="none" xmlns="http://www.w3.org/2000/svg">
<g clip-path="url(#clip0)">
<path d="M15.8299 6.502L8.24561 0.948964C8.09936 0.841902 7.90067 0.841902 7.75449 0.948964L0.170174 6.502C-0.0150757 6.63765 -0.0553257 6.89778 0.0803306 7.08303C0.215987 7.26828 0.476143 7.30846 0.661362 7.17287L8.00002 1.79962L15.3387 7.17284C15.4127 7.22706 15.4987 7.25315 15.5839 7.25315C15.7119 7.25315 15.8382 7.19425 15.9197 7.083C16.0554 6.89778 16.0151 6.63765 15.8299 6.502Z" fill="#307FDD"/>
<path d="M13.8202 7.26697C13.5907 7.26697 13.4045 7.45309 13.4045 7.68269V14.2998H10.0788V10.6878C10.0788 9.54153 9.14626 8.60903 8.00007 8.60903C6.85388 8.60903 5.92132 9.54159 5.92132 10.6878V14.2999H2.5956V7.68272C2.5956 7.45312 2.40944 7.267 2.17988 7.267C1.95032 7.267 1.76416 7.45312 1.76416 7.68272V14.7156C1.76416 14.9452 1.95032 15.1313 2.17988 15.1313H6.33704C6.55566 15.1313 6.73457 14.9624 6.75113 14.748C6.75213 14.7383 6.75275 14.7277 6.75275 14.7156V10.6878C6.75275 10 7.31229 9.4405 8.00007 9.4405C8.68785 9.4405 9.24738 10.0001 9.24738 10.6878V14.7156C9.24738 14.7276 9.24801 14.738 9.24901 14.7476C9.26538 14.9622 9.44435 15.1313 9.6631 15.1313H13.8203C14.0498 15.1313 14.236 14.9452 14.236 14.7156V7.68272C14.2359 7.45309 14.0498 7.26697 13.8202 7.26697Z" fill="#307FDD"/>
</g>
<defs>
<clipPath id="clip0">
<rect width="16" height="16" fill="white"/>
</clipPath>
</defs>
</svg>
