<svg width="24" height="24" viewBox="0 0 24 24" fill="none" xmlns="http://www.w3.org/2000/svg">
<path d="M18.5 19C17.122 19 16 20.122 16 21.5C16 22.878 17.122 24 18.5 24C19.878 24 21 22.878 21 21.5C21 20.122 19.878 19 18.5 19ZM18.5 23C17.673 23 17 22.327 17 21.5C17 20.673 17.673 20 18.5 20C19.327 20 20 20.673 20 21.5C20 22.327 19.327 23 18.5 23Z" fill="#777777"/>
<path d="M8.49998 19C7.122 19 6 20.122 6 21.5C6 22.878 7.122 24 8.49998 24C9.87797 24 11 22.878 11 21.5C11 20.122 9.87802 19 8.49998 19ZM8.49998 23C7.67297 23 6.99998 22.327 6.99998 21.5C6.99998 20.673 7.67297 20 8.49998 20C9.327 20 9.99998 20.673 9.99998 21.5C9.99998 22.327 9.327 23 8.49998 23Z" fill="#777777"/>
<path d="M20.5 17H8.95898C7.77098 17 6.741 16.155 6.50798 14.99L3.99 2.40202C3.94298 2.16802 3.738 2.00002 3.50002 2.00002H0.500016C0.224016 2.00002 0 2.22398 0 2.49998C0 2.77598 0.224016 3 0.500016 3H3.09L5.52698 15.187C5.853 16.817 7.296 18 8.95898 18H20.5C20.776 18 21 17.776 21 17.5C21 17.224 20.776 17 20.5 17Z" fill="#777777"/>
<path d="M21.781 11.252C21.504 11.221 21.257 11.412 21.223 11.686C21.129 12.435 20.489 13 19.734 13H5.99999C5.72399 13 5.49997 13.224 5.49997 13.5C5.49997 13.776 5.72399 14.0001 5.99999 14.0001H19.734C20.992 14.0001 22.059 13.059 22.215 11.8101C22.249 11.536 22.055 11.286 21.781 11.252Z" fill="#777777"/>
<path d="M11.5 5.00002H4.49999C4.22399 5.00002 3.99997 5.22403 3.99997 5.50003C3.99997 5.77603 4.22399 6 4.49999 6H11.5C11.776 6 12 5.77598 12 5.49998C12 5.22398 11.776 5.00002 11.5 5.00002Z" fill="#777777"/>
<path d="M18.5 0C15.467 0 13 2.46698 13 5.49998C13 8.53298 15.467 11 18.5 11C21.533 11 24 8.53298 24 5.49998C24 2.46698 21.533 0 18.5 0ZM18.5 9.99998C16.019 9.99998 14 7.98098 14 5.49998C14 3.01898 16.019 0.999984 18.5 0.999984C20.981 0.999984 23 3.01898 23 5.49998C23 7.98098 20.981 9.99998 18.5 9.99998Z" fill="#777777"/>
</svg>
