<svg width="20" height="18" viewBox="0 0 20 18" fill="none" xmlns="http://www.w3.org/2000/svg">
<g clip-path="url(#clip0)">
<path d="M9.6783 0C4.44712 0 0.19104 4.03749 0.19104 9C0.19104 13.9625 4.44712 18 9.6783 18C14.9095 18 19.1656 13.9625 19.1656 9C19.1656 4.03749 14.9095 0 9.6783 0ZM9.6783 16.875C5.10086 16.875 1.37695 13.3424 1.37695 9C1.37695 4.65765 5.10086 1.12501 9.6783 1.12501C14.2557 1.12501 17.9797 4.65765 17.9797 9C17.9797 13.3424 14.2557 16.875 9.6783 16.875Z" fill="#307FDD"/>
<path d="M10.2712 3.375H9.08533V9.2329L12.8168 12.7727L13.6552 11.9773L10.2712 8.76707V3.375Z" fill="#307FDD"/>
</g>
<defs>
<clipPath id="clip0">
<rect width="18.9745" height="18" fill="white" transform="translate(0.19104)"/>
</clipPath>
</defs>
</svg>
