<svg width="40" height="40" viewBox="0 0 40 40" fill="none" xmlns="http://www.w3.org/2000/svg">
<g clip-path="url(#clip0)">
<path fill-rule="evenodd" clip-rule="evenodd" d="M37 36H35.9C35.6705 37.1303 35.0573 38.1465 34.1642 38.8764C33.2712 39.6063 32.1534 40.005 31 40.005C29.8466 40.005 28.7288 39.6063 27.8358 38.8764C26.9427 38.1465 26.3295 37.1303 26.1 36H13.9C13.6705 37.1303 13.0573 38.1465 12.1642 38.8764C11.2712 39.6063 10.1534 40.005 9 40.005C7.84664 40.005 6.72877 39.6063 5.83575 38.8764C4.94274 38.1465 4.32949 37.1303 4.09998 36H3C2.20435 36 1.44127 35.6839 0.878662 35.1213C0.316053 34.5587 0 33.7956 0 33V20C0 19.2043 0.316053 18.4413 0.878662 17.8787C1.44127 17.316 2.20435 17 3 17H29.974C31.631 17 32.858 18.325 34.018 19.609L40 25.989V33C40 33.7956 39.6839 34.5587 39.1213 35.1213C38.5587 35.6839 37.7957 36 37 36ZM31 38C31.5933 38 32.1733 37.824 32.6667 37.4944C33.16 37.1647 33.5446 36.6962 33.7717 36.148C33.9987 35.5998 34.0581 34.9967 33.9424 34.4147C33.8266 33.8328 33.5409 33.2982 33.1213 32.8787C32.7018 32.4591 32.1672 32.1734 31.5853 32.0576C31.0033 31.9419 30.4001 32.0013 29.8519 32.2283C29.3038 32.4554 28.8353 32.8399 28.5056 33.3333C28.176 33.8266 28 34.4066 28 35C28 35.7956 28.3161 36.5587 28.8787 37.1213C29.4413 37.6839 30.2044 38 31 38ZM9 38C9.59334 38 10.1733 37.824 10.6667 37.4944C11.16 37.1647 11.5446 36.6962 11.7717 36.148C11.9987 35.5998 12.0581 34.9967 11.9424 34.4147C11.8266 33.8328 11.5409 33.2982 11.1213 32.8787C10.7018 32.4591 10.1672 32.1734 9.58527 32.0576C9.00332 31.9419 8.40011 32.0013 7.85193 32.2283C7.30375 32.4554 6.83526 32.8399 6.50562 33.3333C6.17597 33.8266 6 34.4066 6 35C6 35.7956 6.31605 36.5587 6.87866 37.1213C7.44127 37.6839 8.20435 38 9 38ZM38 27H29C28.4696 27 27.9609 26.7893 27.5858 26.4142C27.2107 26.0391 27 25.5304 27 25V22C27 21.7348 27.1054 21.4804 27.2929 21.2929C27.4804 21.1053 27.7348 21 28 21C28.2652 21 28.5196 21.1053 28.7071 21.2929C28.8946 21.4804 29 21.7348 29 22V25H36.51L31.864 20.1C31.3365 19.495 30.6059 19.1038 29.81 19H3C2.73478 19 2.48044 19.1053 2.29291 19.2929C2.10537 19.4804 2 19.7348 2 20V33C2 33.2652 2.10537 33.5196 2.29291 33.7071C2.48044 33.8946 2.73478 34 3 34H4.09998C4.32949 32.8697 4.94274 31.8535 5.83575 31.1236C6.72877 30.3937 7.84664 29.995 9 29.995C10.1534 29.995 11.2712 30.3937 12.1642 31.1236C13.0573 31.8535 13.6705 32.8697 13.9 34H26.1C26.3295 32.8697 26.9427 31.8535 27.8358 31.1236C28.7288 30.3937 29.8466 29.995 31 29.995C32.1534 29.995 33.2712 30.3937 34.1642 31.1236C35.0573 31.8535 35.6705 32.8697 35.9 34H37C37.2652 34 37.5196 33.8946 37.7071 33.7071C37.8946 33.5196 38 33.2652 38 33V27ZM21 28H16C15.7348 28 15.4804 27.8946 15.2929 27.7071C15.1054 27.5196 15 27.2652 15 27C15 26.7348 15.1054 26.4804 15.2929 26.2929C15.4804 26.1053 15.7348 26 16 26H21C21.2652 26 21.5196 26.1053 21.7071 26.2929C21.8946 26.4804 22 26.7348 22 27C22 27.2652 21.8946 27.5196 21.7071 27.7071C21.5196 27.8946 21.2652 28 21 28ZM21 25H9C8.73478 25 8.48044 24.8946 8.29291 24.7071C8.10537 24.5196 8 24.2652 8 24C8 23.7348 8.10537 23.4804 8.29291 23.2929C8.48044 23.1053 8.73478 23 9 23H21C21.2652 23 21.5196 23.1053 21.7071 23.2929C21.8946 23.4804 22 23.7348 22 24C22 24.2652 21.8946 24.5196 21.7071 24.7071C21.5196 24.8946 21.2652 25 21 25ZM10.076 9.59298C10.1851 9.35148 10.3857 9.16316 10.6335 9.06941C10.8814 8.97566 11.1564 8.98414 11.398 9.09298L14.848 10.639C15.1897 10.3289 15.6119 10.1215 16.0661 10.0405C16.5203 9.95951 16.9882 10.0082 17.416 10.181L20.288 7.26798C20.4785 7.09768 20.727 7.00677 20.9824 7.01392C21.2379 7.02107 21.4809 7.12573 21.6616 7.30642C21.8423 7.48711 21.9469 7.73012 21.954 7.98555C21.9612 8.24099 21.8703 8.48947 21.7 8.67998L18.825 11.6C18.9392 11.8864 18.9985 12.1917 19 12.5C19 13.163 18.7366 13.7989 18.2678 14.2677C17.7989 14.7366 17.163 15 16.5 15C15.837 15 15.2011 14.7366 14.7322 14.2677C14.2634 13.7989 14 13.163 14 12.5C14 12.483 14 12.467 14 12.45L10.574 10.915C10.3328 10.8055 10.145 10.6048 10.0516 10.357C9.95827 10.1091 9.96702 9.83437 10.076 9.59298ZM16.5 13C16.5989 13 16.6955 12.9707 16.7778 12.9157C16.86 12.8608 16.9241 12.7827 16.9619 12.6913C16.9998 12.6 17.0097 12.4994 16.9904 12.4024C16.9711 12.3054 16.9235 12.2164 16.8536 12.1464C16.7837 12.0765 16.6945 12.0289 16.5975 12.0096C16.5005 11.9903 16.4 12.0002 16.3087 12.038C16.2173 12.0759 16.1392 12.14 16.0843 12.2222C16.0293 12.3044 16 12.4011 16 12.5C16 12.6326 16.0527 12.7598 16.1464 12.8535C16.2402 12.9473 16.3674 13 16.5 13ZM26.688 15C27.0739 13.4522 27.1022 11.8369 26.7706 10.2766C26.439 8.71634 25.7563 7.25211 24.7742 5.99511C23.7922 4.7381 22.5367 3.72137 21.103 3.02209C19.6693 2.32281 18.0951 1.95938 16.5 1.95938C14.9049 1.95938 13.3307 2.32281 11.897 3.02209C10.4633 3.72137 9.20781 4.7381 8.22577 5.99511C7.24373 7.25211 6.56097 8.71634 6.22937 10.2766C5.89777 11.8369 5.92605 13.4522 6.31201 15H4.25098C3.88233 13.1845 3.92183 11.3098 4.36658 9.51152C4.81133 7.7132 5.65021 6.03621 6.82257 4.60186C7.99493 3.16752 9.47147 2.01169 11.1453 1.21798C12.8192 0.424261 14.6485 0.0125122 16.501 0.0125122C18.3535 0.0125122 20.1828 0.424261 21.8567 1.21798C23.5305 2.01169 25.0071 3.16752 26.1794 4.60186C27.3518 6.03621 28.1907 7.7132 28.6354 9.51152C29.0802 11.3098 29.1196 13.1845 28.751 15H26.69H26.688Z" fill="#307FDD"/>
<path d="M31 39C30.2089 39 29.4355 38.7654 28.7777 38.3259C28.1199 37.8864 27.6073 37.2617 27.3045 36.5307C27.0018 35.7998 26.9225 34.9956 27.0769 34.2197C27.2312 33.4437 27.6122 32.731 28.1716 32.1716C28.731 31.6122 29.4437 31.2312 30.2197 31.0769C30.9956 30.9225 31.7999 31.0017 32.5308 31.3045C33.2617 31.6072 33.8863 32.1199 34.3259 32.7777C34.7654 33.4355 35 34.2089 35 35C35 36.0609 34.5786 37.0783 33.8284 37.8284C33.0783 38.5786 32.0609 39 31 39ZM9.13001 15C8.90248 13.6388 8.97425 12.2444 9.34034 10.9137C9.70643 9.58309 10.3581 8.34818 11.2499 7.29494C12.1417 6.24169 13.2523 5.3954 14.5043 4.81493C15.7564 4.23447 17.1199 3.93378 18.5 3.93378C19.8801 3.93378 21.2436 4.23447 22.4957 4.81493C23.7478 5.3954 24.8583 6.24169 25.7501 7.29494C26.6419 8.34818 27.2936 9.58309 27.6597 10.9137C28.0258 12.2444 28.0975 13.6388 27.87 15H9.13001ZM13 35C13 35.7911 12.7654 36.5645 12.3259 37.2223C11.8863 37.8801 11.2617 38.3928 10.5308 38.6955C9.79986 38.9983 8.9956 39.0775 8.21967 38.9232C7.44375 38.7688 6.73099 38.3879 6.17158 37.8284C5.61217 37.269 5.23119 36.5563 5.07685 35.7804C4.92251 35.0045 5.00176 34.2002 5.30451 33.4693C5.60726 32.7384 6.11992 32.1137 6.77772 31.6741C7.43551 31.2346 8.20888 31 9.00001 31C10.0609 31 11.0783 31.4214 11.8284 32.1716C12.5786 32.9217 13 33.9391 13 35Z" fill="#307FDD"/>
</g>
<defs>
<clipPath id="clip0">
<rect width="40" height="40" fill="white"/>
</clipPath>
</defs>
</svg>
