<svg width="40" height="40" viewBox="0 0 40 40" fill="none" xmlns="http://www.w3.org/2000/svg">
<g clip-path="url(#clip0)">
<path fill-rule="evenodd" clip-rule="evenodd" d="M38 22V38C38 38.5304 37.7893 39.0391 37.4142 39.4142C37.0391 39.7893 36.5304 40 36 40H4C3.46957 40 2.96089 39.7893 2.58582 39.4142C2.21074 39.0391 2 38.5304 2 38V22C1.46957 22 0.960888 21.7893 0.585815 21.4142C0.210743 21.0391 0 20.5304 0 20V13C0 12.4696 0.210743 11.9609 0.585815 11.5858C0.960888 11.2107 1.46957 11 2 11H7.81995C6.93469 10.0826 6.33924 8.9249 6.10767 7.67125C5.87609 6.4176 6.01872 5.12351 6.51782 3.95041C7.01692 2.77731 7.85035 1.77713 8.91418 1.07461C9.97802 0.3721 11.2251 -0.00164192 12.5 5.42234e-06C14.0407 -0.000647657 15.5526 0.41777 16.8738 1.21046C18.1949 2.00315 19.2755 3.14025 20 4.50001C20.7245 3.14025 21.8051 2.00315 23.1262 1.21046C24.4474 0.41777 25.9593 -0.000647657 27.5 5.42234e-06C28.7749 -0.00164192 30.022 0.3721 31.0858 1.07461C32.1496 1.77713 32.9831 2.77731 33.4822 3.95041C33.9813 5.12351 34.1239 6.4176 33.8923 7.67125C33.6608 8.9249 33.0653 10.0826 32.1801 11H38C38.5304 11 39.0391 11.2107 39.4142 11.5858C39.7893 11.9609 40 12.4696 40 13V20C40 20.5304 39.7893 21.0391 39.4142 21.4142C39.0391 21.7893 38.5304 22 38 22ZM26 38H36V22H26V38ZM16 38H24V22H19C18.7348 22 18.4804 21.8946 18.2928 21.7071C18.1053 21.5196 18 21.2652 18 21C18 20.7348 18.1053 20.4804 18.2928 20.2929C18.4804 20.1054 18.7348 20 19 20H24V13H16V38ZM2 20H11C11.2652 20 11.5196 20.1054 11.7072 20.2929C11.8947 20.4804 12 20.7348 12 21C12 21.2652 11.8947 21.5196 11.7072 21.7071C11.5196 21.8946 11.2652 22 11 22H4V38H14V13H2V20ZM19 8.50001C19 6.7761 18.3152 5.1228 17.0962 3.90381C15.8772 2.68482 14.2239 2.00001 12.5 2.00001C11.3065 2.00001 10.1619 2.47411 9.31799 3.31803C8.47408 4.16194 8 5.30653 8 6.50001C8 7.69348 8.47408 8.83808 9.31799 9.68199C10.1619 10.5259 11.3065 11 12.5 11H19V8.50001ZM32 6.50001C32 5.30653 31.5259 4.16194 30.682 3.31803C29.8381 2.47411 28.6935 2.00001 27.5 2.00001C25.7761 2.00001 24.1228 2.68482 22.9038 3.90381C21.6848 5.1228 21 6.7761 21 8.50001V11H27.5C28.6935 11 29.8381 10.5259 30.682 9.68199C31.5259 8.83808 32 7.69348 32 6.50001ZM38 13H26V20H38V13Z" fill="#307FDD"/>
<path d="M36 20V38H26V16H38V20H36ZM15 38H7V20H5V16H15V38Z" fill="#307FDD"/>
</g>
<defs>
<clipPath id="clip0">
<rect width="40" height="40" fill="white"/>
</clipPath>
</defs>
</svg>
