<svg width="22" height="18" viewBox="0 0 22 18" fill="none" xmlns="http://www.w3.org/2000/svg">
<path d="M19.5451 1.90111C18.5052 0.781812 17.0626 0.165405 15.4831 0.165405C13.2616 0.165405 11.8551 1.424 11.0665 2.47986C10.8619 2.75384 10.6878 3.02857 10.5417 3.28709C10.3955 3.02857 10.2215 2.75384 10.0168 2.47986C9.2282 1.424 7.82175 0.165405 5.60026 0.165405C4.02074 0.165405 2.57814 0.781851 1.53822 1.90115C0.546314 2.96888 0 4.39888 0 5.92771C0 7.59189 0.68492 9.13974 2.15548 10.7988C3.46977 12.2816 5.36056 13.8101 7.55006 15.5799C8.36592 16.2395 9.20963 16.9215 10.1079 17.667L10.1348 17.6894C10.2513 17.7861 10.3965 17.8345 10.5417 17.8345C10.6869 17.8345 10.8321 17.7861 10.9485 17.6894L10.9755 17.667C11.8737 16.9215 12.7174 16.2395 13.5334 15.5799C15.7228 13.8101 17.6136 12.2817 18.9279 10.7988C20.3984 9.1397 21.0833 7.59189 21.0833 5.92771C21.0833 4.39888 20.537 2.96888 19.5451 1.90111ZM12.7321 14.688C12.0287 15.2565 11.3049 15.8416 10.5417 16.471C9.77847 15.8417 9.05459 15.2565 8.35114 14.6879C4.06616 11.2241 1.23535 8.9358 1.23535 5.92771C1.23535 4.68435 1.67205 3.52951 2.46502 2.67595C3.26709 1.81271 4.38052 1.33728 5.60026 1.33728C7.29389 1.33728 8.3887 2.32705 9.00884 3.15736C9.56512 3.90205 9.85539 4.65275 9.95438 4.94091C10.0372 5.18212 10.2743 5.34537 10.5417 5.34537C10.8091 5.34537 11.0461 5.18212 11.129 4.94091C11.2279 4.65275 11.5182 3.90205 12.0745 3.15732C12.6946 2.32705 13.7894 1.33728 15.4831 1.33728C16.7028 1.33728 17.8162 1.81271 18.6183 2.67595C19.4113 3.52951 19.848 4.68435 19.848 5.92771C19.848 8.9358 17.0172 11.2241 12.7321 14.688Z" fill="#777777"/>
</svg>
