<svg width="21" height="21" viewBox="0 0 21 21" fill="none" xmlns="http://www.w3.org/2000/svg">
<path d="M20.8017 19.8575L15.3799 14.5223C16.7997 12.9797 17.672 10.9396 17.672 8.69472C17.6714 3.89245 13.7159 0 8.83617 0C3.95646 0 0.000976562 3.89245 0.000976562 8.69472C0.000976562 13.497 3.95646 17.3894 8.83617 17.3894C10.9445 17.3894 12.8783 16.6602 14.3972 15.4478L19.8401 20.804C20.1053 21.0653 20.5359 21.0653 20.8011 20.804C21.0669 20.5428 21.0669 20.1188 20.8017 19.8575ZM8.83617 16.0517C4.7074 16.0517 1.3604 12.7579 1.3604 8.69472C1.3604 4.63156 4.7074 1.33773 8.83617 1.33773C12.965 1.33773 16.3119 4.63156 16.3119 8.69472C16.3119 12.7579 12.965 16.0517 8.83617 16.0517Z" fill="#777777"/>
</svg>
