<svg width="18" height="17" viewBox="0 0 18 17" fill="none" xmlns="http://www.w3.org/2000/svg">
<path d="M10.0169 4.25006H8.31689V5.95006H10.0169V4.25006Z" fill="#999999"/>
<path d="M10.0169 7.65002H8.31689V12.75H10.0169V7.65002Z" fill="#999999"/>
<path d="M9.16699 0C4.47499 0 0.666992 3.808 0.666992 8.5C0.666992 13.192 4.47499 17 9.16699 17C13.859 17 17.667 13.192 17.667 8.5C17.667 3.808 13.859 0 9.16699 0ZM9.16699 15.3C5.41849 15.3 2.36699 12.2485 2.36699 8.5C2.36699 4.7515 5.41849 1.7 9.16699 1.7C12.9155 1.7 15.967 4.7515 15.967 8.5C15.967 12.2485 12.9155 15.3 9.16699 15.3Z" fill="#999999"/>
</svg>
