<svg width="25" height="24" viewBox="0 0 25 24" fill="none" xmlns="http://www.w3.org/2000/svg">
<path fill-rule="evenodd" clip-rule="evenodd" d="M9.65314 4C10.0906 2.8 11.2677 2 12.5906 2C13.9136 2 15.0906 2.8 15.5386 4H20.924C21.4993 4 21.9656 4.44772 21.9656 5C21.9656 5.55228 21.4993 6 20.924 6H19.9344L23.0073 13C23.5906 15 21.9656 16 19.3615 16C16.7573 16 15.2261 15 15.7156 13L18.7886 6H15.5281C15.1948 6.85 14.5177 7.5 13.6323 7.82C13.6323 7.82 12.9067 7.99805 12.4999 8C12.0931 8.00195 11.549 7.83 11.549 7.83C10.6636 7.5 9.98647 6.85 9.64272 6H6.39272L9.46564 13C10.049 15 8.42397 16 5.8198 16C3.21564 16 1.68439 15 2.17397 13L5.24689 6H4.2573C3.68201 6 3.21564 5.55228 3.21564 5C3.21564 4.44772 3.68201 4 4.2573 4H9.65314ZM13.3272 4.29289C13.1319 4.10536 12.8669 4 12.5906 4C12.3144 4 12.0494 4.10536 11.8541 4.29289C11.6587 4.48043 11.549 4.73478 11.549 5C11.549 5.26522 11.6587 5.51957 11.8541 5.70711C12.0494 5.89464 12.3144 6 12.5906 6C12.8669 6 13.1319 5.89464 13.3272 5.70711C13.5225 5.51957 13.6323 5.26522 13.6323 5C13.6323 4.73478 13.5225 4.48043 13.3272 4.29289ZM7.3823 13L5.8198 9.25L4.2573 13H7.3823ZM20.924 13L19.3615 9.25L17.799 13H20.924Z" fill="#3F4E5D" fill-opacity="0.6"/>
<path d="M4.25749 19C3.6822 19 3.21582 19.4477 3.21582 20C3.21582 20.5523 3.6822 21 4.25749 21H20.9242C21.4995 21 21.9658 20.5523 21.9658 20C21.9658 19.4477 21.4995 19 20.9242 19H4.25749Z" fill="#3F4E5D" fill-opacity="0.6"/>
</svg>
