<svg width="25" height="24" viewBox="0 0 25 24" fill="none" xmlns="http://www.w3.org/2000/svg">
<path d="M23.176 3.45769C21.9429 2.12365 20.2323 1.38898 18.3594 1.38898C15.7252 1.38898 14.0575 2.88905 13.1223 4.14748C12.8797 4.47403 12.6733 4.80147 12.5 5.10958C12.3267 4.80147 12.1204 4.47403 11.8777 4.14748C10.9425 2.88905 9.27481 1.38898 6.64062 1.38898C4.76768 1.38898 3.05708 2.12369 1.82397 3.45774C0.647803 4.73033 0 6.43469 0 8.25684C0 10.2403 0.812158 12.0851 2.55591 14.0625C4.11436 15.8298 6.3564 17.6515 8.95264 19.761C9.92007 20.547 10.9205 21.3599 11.9856 22.2484L12.0176 22.2752C12.1557 22.3904 12.3278 22.448 12.5 22.448C12.6722 22.448 12.8443 22.3904 12.9824 22.2752L13.0144 22.2484C14.0795 21.3599 15.0799 20.5471 16.0475 19.7609C18.6436 17.6515 20.8856 15.8299 22.4441 14.0625C24.1878 12.0851 25 10.2403 25 8.25684C25 6.43469 24.3522 4.73033 23.176 3.45769ZM15.0973 18.6979C14.2633 19.3755 13.405 20.0728 12.5 20.823C11.595 20.0729 10.7367 19.3755 9.90254 18.6978C4.82153 14.5694 1.46484 11.8421 1.46484 8.25684C1.46484 6.77493 1.98267 5.39852 2.92295 4.3812C3.87402 3.35233 5.19429 2.78569 6.64062 2.78569C8.64888 2.78569 9.94707 3.96535 10.6824 4.95497C11.342 5.84253 11.6862 6.73727 11.8036 7.08072C11.9018 7.36821 12.1829 7.56277 12.5 7.56277C12.8171 7.56277 13.0982 7.36821 13.1964 7.08072C13.3138 6.73727 13.658 5.84253 14.3176 4.95492C15.0529 3.96535 16.3511 2.78569 18.3594 2.78569C19.8057 2.78569 21.126 3.35233 22.077 4.3812C23.0173 5.39852 23.5352 6.77493 23.5352 8.25684C23.5352 11.8421 20.1785 14.5694 15.0973 18.6979Z" fill="#DEDEDE"/>
</svg>
